<svg width="178" height="100" viewBox="0 0 178 100" fill="none" xmlns="http://www.w3.org/2000/svg">
<g filter="url(#filter0_d_1_794)">
<rect x="4.5" y="0.5" width="169" height="91" rx="3.5" stroke="#AFB1B8"/>
<path d="M72.4062 65.1014C72.4221 65.1018 72.4378 65.1049 72.4523 65.1106C72.4668 65.1163 72.4799 65.1245 72.4907 65.1346L72.7089 65.3431C72.5395 65.5118 72.3303 65.6468 72.0954 65.7388C71.8203 65.8391 71.5239 65.8875 71.2257 65.8809C70.9454 65.8859 70.667 65.8408 70.4077 65.7482C70.1738 65.6632 69.9637 65.5356 69.7915 65.3739C69.6158 65.2062 69.4805 65.0096 69.3935 64.7958C69.2982 64.5574 69.2511 64.3065 69.2544 64.0542C69.2505 63.8003 69.3014 63.548 69.4044 63.3103C69.4996 63.0951 69.6433 62.8986 69.827 62.7322C70.0132 62.5691 70.2359 62.4408 70.4813 62.3555C70.7499 62.265 71.0358 62.22 71.3238 62.2228C71.5913 62.2172 71.8574 62.2582 72.1063 62.3436C72.3222 62.425 72.5205 62.538 72.6925 62.6777L72.5098 62.9004C72.4972 62.9161 72.4815 62.9297 72.4635 62.9407C72.4419 62.9535 72.4159 62.9594 72.3899 62.9573C72.3616 62.9556 72.3343 62.9474 72.3108 62.9336L72.2126 62.8743L72.0763 62.7985C72.0175 62.7704 71.9564 62.7458 71.8936 62.7251C71.8128 62.6999 71.7298 62.6801 71.6455 62.6659C71.5385 62.6487 71.4299 62.6408 71.3211 62.6422C71.1137 62.6399 70.9079 62.6737 70.7158 62.7417C70.5367 62.8046 70.3749 62.8999 70.2414 63.0212C70.1054 63.1503 70.0007 63.3018 69.9333 63.4667C69.8565 63.6553 69.8187 63.8542 69.8215 64.0542C69.8182 64.2574 69.8561 64.4595 69.9333 64.6513C69.9998 64.8147 70.1027 64.9653 70.2359 65.0943C70.3608 65.2146 70.5156 65.3086 70.6885 65.3692C70.8665 65.4333 71.0575 65.4655 71.2502 65.4639C71.3615 65.4654 71.4727 65.4591 71.5828 65.445C71.7626 65.4259 71.9351 65.3716 72.0872 65.2862C72.1635 65.2425 72.2356 65.1934 72.3026 65.1393C72.3306 65.1161 72.3675 65.1026 72.4062 65.1014Z" fill="#AFB1B8"/>
<path d="M78.7043 64.0538C78.7077 64.3052 78.6578 64.5549 78.5571 64.7906C78.4682 65.0043 78.3283 65.1993 78.1464 65.3626C77.9645 65.526 77.7449 65.654 77.502 65.7382C76.9682 65.9151 76.3781 65.9151 75.8443 65.7382C75.6029 65.6527 75.3847 65.5244 75.2036 65.3615C75.0218 65.1952 74.8808 64.9986 74.7891 64.7835C74.5927 64.3063 74.5927 63.7847 74.7891 63.3076C74.8822 63.0923 75.023 62.8951 75.2036 62.7271C75.3862 62.5694 75.6043 62.446 75.8443 62.3647C76.3774 62.1846 76.9688 62.1846 77.502 62.3647C77.7442 62.4502 77.9633 62.5784 78.1454 62.7414C78.3249 62.906 78.4648 63.1001 78.5571 63.3123C78.6581 63.5495 78.708 63.8009 78.7043 64.0538ZM78.1318 64.0538C78.1361 63.8527 78.101 63.6525 78.0282 63.4615C77.9671 63.298 77.8677 63.1472 77.7364 63.0185C77.6086 62.8968 77.4512 62.8013 77.2757 62.739C76.8878 62.6095 76.4584 62.6095 76.0706 62.739C75.895 62.8013 75.7376 62.8968 75.6098 63.0185C75.4767 63.1464 75.3763 63.2974 75.3154 63.4615C75.1766 63.8472 75.1766 64.2604 75.3154 64.6461C75.3769 64.81 75.4772 64.9609 75.6098 65.0891C75.7378 65.2101 75.8952 65.3048 76.0706 65.3663C76.4591 65.4925 76.8871 65.4925 77.2757 65.3663C77.451 65.3048 77.6084 65.2101 77.7364 65.0891C77.8672 64.9601 77.9664 64.8094 78.0282 64.6461C78.1013 64.4552 78.1364 64.2549 78.1318 64.0538Z" fill="#AFB1B8"/>
<path d="M83.0013 64.6747L83.0585 64.8074C83.0803 64.76 83.0994 64.7173 83.1212 64.6747C83.142 64.6302 83.1657 64.5867 83.1921 64.5444L84.5853 62.3438C84.6126 62.3059 84.6371 62.2823 84.6644 62.2751C84.7015 62.2653 84.7402 62.2613 84.7789 62.2633H85.1906V65.8425H84.7026V63.2108C84.7026 63.1776 84.7026 63.1397 84.7026 63.0995C84.6999 63.0585 84.6999 63.0173 84.7026 62.9763L83.3012 65.2077C83.2834 65.2411 83.2549 65.2694 83.2191 65.2891C83.1833 65.3089 83.1418 65.3192 83.0994 65.319H83.0203C82.9779 65.3195 82.9362 65.3093 82.9003 65.2895C82.8645 65.2697 82.8361 65.2413 82.8186 65.2077L81.3763 62.9621C81.3763 63.0047 81.3763 63.0474 81.3763 63.09C81.3763 63.1326 81.3763 63.1705 81.3763 63.2037V65.8354H80.9046V62.2633H81.3163C81.355 62.2613 81.3937 62.2653 81.4308 62.2751C81.4646 62.2897 81.4916 62.314 81.5072 62.3438L82.9304 64.5468C82.9583 64.5875 82.9821 64.6303 83.0013 64.6747Z" fill="#AFB1B8"/>
<path d="M88.2443 64.4969V65.8376H87.699V62.2632H88.915C89.1445 62.2594 89.3734 62.2857 89.5939 62.3413C89.7704 62.3848 89.934 62.4607 90.0737 62.564C90.1948 62.6608 90.2882 62.7808 90.3464 62.9146C90.4107 63.0604 90.4422 63.2156 90.4391 63.3717C90.4415 63.5285 90.4072 63.684 90.3382 63.8289C90.2726 63.966 90.1719 64.0884 90.0437 64.1866C89.9038 64.2941 89.7394 64.3749 89.5612 64.4234C89.3489 64.4824 89.1269 64.5104 88.9041 64.5063L88.2443 64.4969ZM88.2443 64.1131H88.9041C89.0474 64.1148 89.1901 64.0964 89.3267 64.0587C89.4394 64.0257 89.5432 63.9733 89.632 63.9047C89.714 63.8391 89.7774 63.7581 89.8174 63.6678C89.8621 63.5723 89.8843 63.4701 89.8829 63.367C89.8892 63.2676 89.8706 63.1683 89.8282 63.0758C89.7858 62.9834 89.7207 62.9 89.6375 62.8317C89.4292 62.6904 89.1676 62.6219 88.9041 62.6398H88.2443V64.1131Z" fill="#AFB1B8"/>
<path d="M95.573 65.8424H95.1422C95.099 65.8438 95.0566 65.8321 95.0223 65.8092C94.9913 65.7869 94.967 65.7585 94.9514 65.7263L94.5806 64.8616H92.7184L92.334 65.7263C92.3198 65.7579 92.2963 65.7857 92.2658 65.8069C92.2312 65.8311 92.1876 65.8437 92.1431 65.8424H91.7123L93.3482 62.2628H93.9153L95.573 65.8424ZM92.8738 64.5134H94.4115L93.7626 63.0564C93.713 62.9468 93.6721 62.8344 93.64 62.72L93.5772 62.9072C93.5582 62.964 93.5363 63.0162 93.5173 63.0588L92.8738 64.5134Z" fill="#AFB1B8"/>
<path d="M97.9287 62.2795C97.9613 62.295 97.9893 62.3169 98.0105 62.3434L100.396 65.0417C100.396 64.9991 100.396 64.9564 100.396 64.9161C100.396 64.8759 100.396 64.8356 100.396 64.7977V62.2629H100.884V65.8424H100.612C100.573 65.8434 100.534 65.8361 100.5 65.8211C100.466 65.804 100.436 65.7815 100.413 65.7548L98.0296 63.0589C98.0322 63.0999 98.0322 63.141 98.0296 63.1821C98.0296 63.2223 98.0296 63.2579 98.0296 63.291V65.8424H97.5416V62.2629H97.8306C97.8643 62.2621 97.8978 62.2677 97.9287 62.2795Z" fill="#AFB1B8"/>
<path d="M104.903 64.4188V65.8402H104.358V64.4188L102.85 62.2631H103.338C103.38 62.2609 103.422 62.2718 103.455 62.2938C103.485 62.3168 103.51 62.3441 103.529 62.3744L104.472 63.765C104.51 63.8242 104.543 63.8787 104.57 63.9308C104.598 63.9829 104.619 64.0327 104.639 64.0824L104.709 63.9284C104.736 63.8721 104.767 63.8175 104.802 63.765L105.732 62.3649C105.751 62.337 105.775 62.3115 105.803 62.2891C105.835 62.2646 105.877 62.2518 105.92 62.2536H106.413L104.903 64.4188Z" fill="#AFB1B8"/>
<path d="M82.7313 56.2561C82.9685 56.2822 83.2085 56.3035 83.4511 56.3225C87.13 54.8926 90.2421 52.5523 92.3986 49.5942C94.5551 46.636 95.6602 43.1912 95.5758 39.6904L91.5215 36.1678C92.3458 39.8951 91.9602 43.7482 90.4078 47.2959C88.8554 50.8437 86.1975 53.9461 82.7313 56.2561Z" fill="#AFB1B8"/>
<path d="M81.2836 56.0923L81.3927 56.1112C85.0966 53.8094 87.9205 50.5951 89.4992 46.8839C91.0779 43.1727 91.3388 39.1353 90.2483 35.2939L84.4736 30.2767C86.8093 34.4008 87.7495 39.0162 87.1847 43.5862C86.62 48.1562 84.5737 52.493 81.2836 56.0923Z" fill="#AFB1B8"/>
<path d="M100.868 43.8265C99.8868 47.6731 97.504 51.1423 94.0735 53.7189C93.0716 54.4755 91.9909 55.1496 90.8453 55.7324C93.6388 55.019 96.2064 53.7578 98.3502 52.046C100.494 50.3341 102.157 48.2174 103.21 45.859L100.868 43.8265Z" fill="#AFB1B8"/>
<path d="M99.949 43.2601L96.6146 40.3629C96.5508 43.666 95.47 46.894 93.4845 49.7114C91.499 52.5287 88.6813 54.8327 85.3242 56.3837H85.3406C86.0887 56.3835 86.8362 56.3447 87.579 56.2676C90.7164 55.155 93.488 53.3849 95.6464 51.1152C97.8049 48.8455 99.283 46.1469 99.949 43.2601Z" fill="#AFB1B8"/>
<path d="M81.7662 28.1609L77.7883 24.7C74.2322 25.8939 71.1737 27.9928 69.0133 30.722C66.8529 33.4512 65.6911 36.6835 65.68 39.9959V39.9959C65.6933 43.656 67.1112 47.2077 69.7092 50.0888C72.3072 52.9699 75.937 55.016 80.024 55.903C83.6724 52.041 85.8085 47.2687 86.1218 42.2798C86.4351 37.2908 84.9094 32.3449 81.7662 28.1609Z" fill="#AFB1B8"/>
<path d="M109.14 42.7273C109.126 38.3848 107.134 34.2238 103.6 31.1532C100.065 28.0826 95.2763 26.352 90.2783 26.3395C87.9687 26.3374 85.6788 26.7077 83.5248 27.4315L107.88 48.5926C108.714 46.7221 109.141 44.7333 109.14 42.7273Z" fill="#AFB1B8"/>
</g>
<defs>
<filter id="filter0_d_1_794" x="0" y="0" width="178" height="100" filterUnits="userSpaceOnUse" color-interpolation-filters="sRGB">
<feFlood flood-opacity="0" result="BackgroundImageFix"/>
<feColorMatrix in="SourceAlpha" type="matrix" values="0 0 0 0 0 0 0 0 0 0 0 0 0 0 0 0 0 0 127 0" result="hardAlpha"/>
<feOffset dy="4"/>
<feGaussianBlur stdDeviation="2"/>
<feComposite in2="hardAlpha" operator="out"/>
<feColorMatrix type="matrix" values="0 0 0 0 0 0 0 0 0 0 0 0 0 0 0 0 0 0 0.25 0"/>
<feBlend mode="normal" in2="BackgroundImageFix" result="effect1_dropShadow_1_794"/>
<feBlend mode="normal" in="SourceGraphic" in2="effect1_dropShadow_1_794" result="shape"/>
</filter>
</defs>
</svg>
